<svg xmlns="http://www.w3.org/2000/svg" xmlns:xlink="http://www.w3.org/1999/xlink" width="512" zoomAndPan="magnify" viewBox="0 0 384 383.999986" height="512" preserveAspectRatio="xMidYMid meet" version="1.0"><path fill="#da2f47" d="M 384 192 C 384 298.039062 298.039062 384 192 384 C 85.972656 384 0 298.039062 0 192 C 0 85.972656 85.972656 0 192 0 C 298.039062 0 384 85.972656 384 192 " fill-opacity="1" fill-rule="nonzero"/><path fill="#292f33" d="M 271.839844 318.710938 C 271.359375 316.800781 259.382812 272 192 272 C 124.609375 272 112.640625 316.800781 112.160156 318.710938 C 111.574219 321.023438 112.617188 323.425781 114.6875 324.617188 C 116.769531 325.78125 119.371094 325.460938 121.089844 323.796875 C 121.289062 323.59375 141.929688 304 192 304 C 242.070312 304 262.71875 323.59375 262.910156 323.785156 C 263.9375 324.800781 265.300781 325.332031 266.667969 325.332031 C 267.5625 325.332031 268.46875 325.109375 269.289062 324.652344 C 271.382812 323.457031 272.425781 321.035156 271.839844 318.710938 Z M 167.542969 184.457031 C 132.820312 149.738281 77.023438 149.332031 74.667969 149.332031 C 68.777344 149.332031 64.011719 154.101562 64.011719 159.980469 C 64 165.867188 68.769531 170.644531 74.65625 170.667969 C 74.964844 170.667969 95.1875 170.902344 117.140625 178.527344 C 110.816406 185.355469 106.667969 195.957031 106.667969 208 C 106.667969 228.628906 118.601562 245.332031 133.332031 245.332031 C 148.0625 245.332031 160 228.628906 160 208 C 160 206.144531 159.796875 204.375 159.605469 202.59375 C 159.742188 202.59375 159.871094 202.667969 160 202.667969 C 162.730469 202.667969 165.460938 201.621094 167.542969 199.542969 C 171.710938 195.371094 171.710938 188.628906 167.542969 184.457031 Z M 309.332031 149.332031 C 306.976562 149.332031 251.1875 149.738281 216.457031 184.457031 C 212.289062 188.628906 212.289062 195.371094 216.457031 199.542969 C 218.539062 201.621094 221.269531 202.667969 224 202.667969 C 224.136719 202.667969 224.257812 202.59375 224.382812 202.59375 C 224.214844 204.375 224 206.144531 224 208 C 224 228.628906 235.9375 245.332031 250.667969 245.332031 C 265.398438 245.332031 277.332031 228.628906 277.332031 208 C 277.332031 195.957031 273.183594 185.355469 266.859375 178.527344 C 288.8125 170.902344 309.035156 170.667969 309.355469 170.667969 C 315.230469 170.644531 320 165.867188 319.988281 159.980469 C 319.980469 154.101562 315.222656 149.332031 309.332031 149.332031 Z M 309.332031 149.332031 " fill-opacity="1" fill-rule="nonzero"/></svg>