<svg xmlns="http://www.w3.org/2000/svg" xmlns:xlink="http://www.w3.org/1999/xlink" width="512" zoomAndPan="magnify" viewBox="0 0 384 383.999986" height="512" preserveAspectRatio="xMidYMid meet" version="1.0"><path fill="#ffcc4d" d="M 382.417969 194.109375 C 382.417969 298.980469 297.398438 384 192.527344 384 C 87.65625 384 2.636719 298.980469 2.636719 194.109375 C 2.636719 89.238281 87.65625 4.21875 192.527344 4.21875 C 297.398438 4.21875 382.417969 89.238281 382.417969 194.109375 " fill-opacity="1" fill-rule="nonzero"/><path fill="#664500" d="M 192.527344 234.714844 C 161.238281 234.714844 140.464844 231.066406 114.789062 226.074219 C 108.914062 224.957031 97.507812 226.074219 97.507812 243.355469 C 97.507812 277.902344 137.207031 321.09375 192.527344 321.09375 C 247.847656 321.09375 287.546875 277.902344 287.546875 243.355469 C 287.546875 226.074219 276.132812 224.945312 270.265625 226.074219 C 244.589844 231.066406 223.828125 234.714844 192.527344 234.714844 " fill-opacity="1" fill-rule="nonzero"/><path fill="#e75a70" d="M 178.285156 38.832031 C 169.222656 13.1875 141.109375 -0.273438 115.453125 8.765625 C 99.882812 14.253906 88.859375 26.816406 84.5625 41.511719 C 72 32.765625 55.542969 29.90625 39.992188 35.394531 C 14.359375 44.445312 0.875 72.582031 9.9375 98.226562 C 11.226562 101.855469 12.933594 105.21875 14.917969 108.332031 C 35.5 146.121094 94.964844 172.683594 130.972656 173.011719 C 158.789062 150.148438 188.421875 92.148438 180.742188 49.824219 C 180.34375 46.152344 179.550781 42.460938 178.285156 38.832031 Z M 206.769531 38.832031 C 215.832031 13.1875 243.957031 -0.273438 269.601562 8.765625 C 285.171875 14.253906 296.195312 26.816406 300.5 41.511719 C 313.066406 32.765625 329.523438 29.90625 345.074219 35.394531 C 370.707031 44.445312 384.179688 72.582031 375.136719 98.226562 C 373.839844 101.855469 372.140625 105.21875 370.148438 108.332031 C 349.566406 146.121094 290.097656 172.683594 254.082031 173.011719 C 226.265625 150.148438 196.640625 92.148438 204.320312 49.824219 C 204.710938 46.152344 205.503906 42.460938 206.769531 38.832031 Z M 206.769531 38.832031 " fill-opacity="1" fill-rule="nonzero"/></svg>