<svg xmlns="http://www.w3.org/2000/svg" width="40" height="40" viewBox="0 0 40 40">
    <g fill="none" fill-rule="evenodd">
        <g fill="#E4174F">
            <g>
                <g transform="translate(-639 -602) translate(639 598) translate(0 4)">
                    <rect width="40" height="40" opacity=".1" rx="8"/>
                    <path d="M20 8C13.373 8 8 13.373 8 20s5.373 12 12 12 12-5.373 12-12c0-3.183-1.264-6.235-3.515-8.485C26.235 9.265 23.183 8 20 8zm0 22.047C14.451 30.047 9.953 25.55 9.953 20S14.45 9.953 20 9.953 30.047 14.45 30.047 20 25.55 30.047 20 30.047zm4.471-11.596l-5.456-3.477c-.596-.376-1.36-.41-1.99-.087-.628.323-1.022.95-1.025 1.633v6.954c0 1.027.87 1.86 1.944 1.86.382.001.755-.109 1.07-.315l5.457-3.486c.539-.345.862-.925.862-1.545 0-.621-.323-1.2-.862-1.546v.01zm-1.042 1.59l-5.457 3.486-.093-.053V16.51l.093-.045 5.457 3.477.526-.746-.526.844z"/>
                </g>
            </g>
        </g>
    </g>
</svg>
