<svg xmlns="http://www.w3.org/2000/svg" width="40" height="40" viewBox="0 0 40 40">
    <defs>
        <filter id="zyxsjmjc0a">
            <feColorMatrix in="SourceGraphic" values="0 0 0 0 0.563773 0 0 0 0 0.072924 0 0 0 0 0.995068 0 0 0 1.000000 0"/>
        </filter>
    </defs>
    <g fill="none" fill-rule="evenodd">
        <g>
            <g>
                <g transform="translate(-639 -1152) translate(639 1148) translate(0 4)">
                    <rect width="40" height="40" fill="#9013FE" opacity=".1" rx="8"/>
                    <g filter="url(#zyxsjmjc0a)">
                        <g>
                            <path fill="#6C62F9" d="M12 2.657C15.247.813 19.052-.11 22.908.01 23.512.01 24 .443 24 .978v13.818c0 .535-.488.967-1.092.967-6.566 0-9.856 2.411-10.146 2.623l-.018.014c-.414.356-1.074.356-1.488 0-.1-.079-3.401-2.637-10.164-2.637-.604 0-1.092-.432-1.092-.967V.978C0 .443.488.01 1.092.01 4.948-.11 8.752.813 12 2.657zm-1.092 1.68C8.32 2.817 5.29 1.994 2.184 1.967V13.85c3.047.058 6.036.75 8.724 2.02V4.337zm10.908 9.492c-3.047.057-6.036.75-8.724 2.02V4.337c2.587-1.521 5.619-2.345 8.724-2.37v11.862zm1.052 4.845l-.075.006h.232c.329.036.63.227.81.525.22.364.22.83 0 1.195-.222.366-.626.57-1.042.525-2.62-.044-5.22.476-7.635 1.525-.913.388-1.765.91-2.534 1.55h-1.248c-.769-.64-1.621-1.162-2.534-1.55-2.415-1.05-5.016-1.569-7.635-1.525-.416.045-.82-.16-1.041-.525-.221-.365-.221-.83 0-1.195.22-.366.625-.57 1.04-.525 3.858-.148 7.668.93 10.914 3.088 3.2-2.127 6.947-3.204 10.748-3.094zm.152.005c-.05-.005-.1-.007-.152-.005l.152.005z" transform="translate(8 8)"/>
                        </g>
                    </g>
                </g>
            </g>
        </g>
    </g>
</svg>
