<svg width="16" height="16" viewBox="0 0 16 16" fill="none" xmlns="http://www.w3.org/2000/svg">
<path opacity="0.3" fill-rule="evenodd" clip-rule="evenodd" d="M1.28653 5.89177L1.87395 6.66052L2.00077 7.61753C2.07106 8.14838 2.4884 8.56618 3.01928 8.63696L3.97881 8.76525L4.74711 9.35213C5.17231 9.67703 5.76169 9.67703 6.18689 9.35213L6.95569 8.76476H6.95471L7.91227 8.63794C8.44315 8.56765 8.86098 8.15034 8.93176 7.61949L9.05957 6.66003C9.05957 6.66052 9.35647 6.27172 9.64698 5.89177C9.9719 5.4666 9.97141 4.87725 9.64698 4.45208L9.06055 3.68333L8.93373 2.72632C8.86343 2.19547 8.4461 1.77767 7.91522 1.70689L6.9552 1.5791L6.18689 0.992211C5.76169 0.66731 5.17231 0.66731 4.74711 0.992211L3.97831 1.5791H3.9793L3.02174 1.7064C2.49086 1.77669 2.07303 2.194 2.00225 2.72485L1.87395 3.68431C1.87395 3.68382 1.57705 4.07262 1.28653 4.45257C0.962106 4.87725 0.962106 5.46709 1.28653 5.89177Z" fill="#08BD80"/>
<path fill-rule="evenodd" clip-rule="evenodd" d="M1.49068 9.38355L2.41003 10.5868L2.60851 12.0847C2.71853 12.9155 3.37169 13.5695 4.20256 13.6803L5.70429 13.881L6.90675 14.7996C7.57222 15.3082 8.49465 15.3082 9.16011 14.7996L10.3633 13.8803H10.3618L11.8605 13.6818C12.6913 13.5718 13.3453 12.9186 13.456 12.0877L13.6561 10.586C13.6561 10.5868 14.1207 9.97824 14.5754 9.38355C15.0839 8.71808 15.0832 7.79566 14.5754 7.13019L13.6576 5.92696L13.4591 4.42908C13.3491 3.59821 12.6959 2.94428 11.8651 2.83349L10.3626 2.63347L9.16011 1.71489C8.49465 1.20636 7.57222 1.20636 6.90675 1.71489L5.70352 2.63347H5.70506L4.20641 2.83272C3.37554 2.94274 2.72161 3.5959 2.61082 4.42677L2.41003 5.9285C2.41003 5.92773 1.94535 6.53627 1.49068 7.13096C0.982924 7.79566 0.982924 8.71885 1.49068 9.38355Z" fill="#08BD80"/>
<path d="M6.41699 9.87278L9.64817 6.6416" stroke="white" stroke-width="1.02575" stroke-linecap="round" stroke-linejoin="round"/>
<path fill-rule="evenodd" clip-rule="evenodd" d="M10.4337 9.6176C10.722 9.90591 10.722 10.3721 10.4337 10.6574C10.1454 10.9457 9.67921 10.9457 9.39397 10.6574C9.10566 10.3691 9.10566 9.90285 9.39397 9.6176C9.67921 9.32929 10.1454 9.32929 10.4337 9.6176Z" fill="white"/>
<path fill-rule="evenodd" clip-rule="evenodd" d="M6.78261 5.86907C7.07092 6.15738 7.07092 6.62358 6.78261 6.90883C6.4943 7.19714 6.02809 7.19714 5.74284 6.90883C5.45453 6.62052 5.45453 6.15431 5.74284 5.86907C6.02809 5.58075 6.4943 5.58075 6.78261 5.86907Z" fill="white"/>
</svg>
