<svg xmlns="http://www.w3.org/2000/svg" xmlns:xlink="http://www.w3.org/1999/xlink" width="512" zoomAndPan="magnify" viewBox="0 0 384 383.999986" height="512" preserveAspectRatio="xMidYMid meet" version="1.0"><path fill="#ffcc4d" d="M 384 192 C 384 298.039062 298.039062 384 192 384 C 85.972656 384 0 298.039062 0 192 C 0 85.972656 85.972656 0 192 0 C 298.039062 0 384 85.972656 384 192 " fill-opacity="1" fill-rule="nonzero"/><path fill="#664500" d="M 149.332031 176 C 149.332031 177.222656 149.289062 178.441406 149.203125 179.660156 C 149.121094 180.875 148.992188 182.085938 148.820312 183.285156 C 148.652344 184.484375 148.4375 185.667969 148.183594 186.835938 C 147.929688 188.007812 147.636719 189.15625 147.304688 190.285156 C 146.96875 191.417969 146.597656 192.519531 146.183594 193.597656 C 145.773438 194.675781 145.324219 195.726562 144.839844 196.742188 C 144.355469 197.757812 143.835938 198.738281 143.28125 199.683594 C 142.726562 200.628906 142.140625 201.535156 141.523438 202.398438 C 140.90625 203.261719 140.257812 204.082031 139.582031 204.859375 C 138.910156 205.632812 138.207031 206.363281 137.480469 207.042969 C 136.753906 207.722656 136.007812 208.347656 135.238281 208.925781 C 134.46875 209.5 133.679688 210.023438 132.871094 210.492188 C 132.066406 210.960938 131.242188 211.371094 130.40625 211.726562 C 129.570312 212.082031 128.726562 212.378906 127.867188 212.617188 C 127.011719 212.855469 126.148438 213.035156 125.28125 213.152344 C 124.410156 213.273438 123.539062 213.332031 122.667969 213.332031 C 121.792969 213.332031 120.921875 213.273438 120.054688 213.152344 C 119.183594 213.035156 118.320312 212.855469 117.464844 212.617188 C 116.609375 212.378906 115.761719 212.082031 114.925781 211.726562 C 114.089844 211.371094 113.269531 210.960938 112.460938 210.492188 C 111.65625 210.023438 110.867188 209.5 110.097656 208.925781 C 109.324219 208.347656 108.578125 207.722656 107.851562 207.042969 C 107.125 206.363281 106.425781 205.632812 105.75 204.859375 C 105.074219 204.082031 104.429688 203.261719 103.808594 202.398438 C 103.191406 201.535156 102.605469 200.628906 102.054688 199.683594 C 101.5 198.738281 100.980469 197.757812 100.492188 196.742188 C 100.007812 195.726562 99.558594 194.675781 99.148438 193.597656 C 98.738281 192.519531 98.363281 191.417969 98.03125 190.285156 C 97.695312 189.15625 97.402344 188.007812 97.148438 186.835938 C 96.894531 185.667969 96.683594 184.484375 96.511719 183.285156 C 96.34375 182.085938 96.214844 180.875 96.128906 179.660156 C 96.042969 178.441406 96 177.222656 96 176 C 96 174.777344 96.042969 173.558594 96.128906 172.339844 C 96.214844 171.125 96.34375 169.914062 96.511719 168.714844 C 96.683594 167.515625 96.894531 166.332031 97.148438 165.164062 C 97.402344 163.992188 97.695312 162.84375 98.03125 161.714844 C 98.363281 160.582031 98.738281 159.480469 99.148438 158.402344 C 99.558594 157.324219 100.007812 156.273438 100.492188 155.257812 C 100.980469 154.242188 101.5 153.261719 102.054688 152.316406 C 102.605469 151.371094 103.191406 150.464844 103.808594 149.601562 C 104.429688 148.738281 105.074219 147.917969 105.75 147.140625 C 106.425781 146.367188 107.125 145.636719 107.851562 144.957031 C 108.578125 144.277344 109.324219 143.652344 110.097656 143.074219 C 110.867188 142.5 111.65625 141.976562 112.460938 141.507812 C 113.269531 141.039062 114.089844 140.628906 114.925781 140.273438 C 115.761719 139.917969 116.609375 139.621094 117.464844 139.382812 C 118.320312 139.144531 119.183594 138.964844 120.054688 138.847656 C 120.921875 138.726562 121.792969 138.667969 122.667969 138.667969 C 123.539062 138.667969 124.410156 138.726562 125.28125 138.847656 C 126.148438 138.964844 127.011719 139.144531 127.867188 139.382812 C 128.726562 139.621094 129.570312 139.917969 130.40625 140.273438 C 131.242188 140.628906 132.066406 141.039062 132.871094 141.507812 C 133.679688 141.976562 134.46875 142.5 135.238281 143.074219 C 136.007812 143.652344 136.753906 144.277344 137.480469 144.957031 C 138.207031 145.636719 138.910156 146.367188 139.582031 147.140625 C 140.257812 147.917969 140.90625 148.738281 141.523438 149.601562 C 142.140625 150.464844 142.726562 151.371094 143.28125 152.316406 C 143.835938 153.261719 144.355469 154.242188 144.839844 155.257812 C 145.324219 156.273438 145.773438 157.324219 146.183594 158.402344 C 146.597656 159.480469 146.96875 160.582031 147.304688 161.714844 C 147.636719 162.84375 147.929688 163.992188 148.183594 165.164062 C 148.4375 166.332031 148.652344 167.515625 148.820312 168.714844 C 148.992188 169.914062 149.121094 171.125 149.203125 172.339844 C 149.289062 173.558594 149.332031 174.777344 149.332031 176 Z M 149.332031 176 " fill-opacity="1" fill-rule="nonzero"/><path fill="#664500" d="M 288 176 C 288 177.222656 287.957031 178.441406 287.871094 179.660156 C 287.785156 180.875 287.65625 182.085938 287.488281 183.285156 C 287.316406 184.484375 287.105469 185.667969 286.851562 186.835938 C 286.597656 188.007812 286.304688 189.15625 285.96875 190.285156 C 285.636719 191.417969 285.261719 192.519531 284.851562 193.597656 C 284.441406 194.675781 283.992188 195.726562 283.503906 196.742188 C 283.019531 197.757812 282.5 198.738281 281.945312 199.683594 C 281.394531 200.628906 280.808594 201.535156 280.191406 202.398438 C 279.570312 203.261719 278.925781 204.082031 278.25 204.859375 C 277.574219 205.632812 276.875 206.363281 276.148438 207.042969 C 275.421875 207.722656 274.675781 208.347656 273.902344 208.925781 C 273.132812 209.5 272.34375 210.023438 271.539062 210.492188 C 270.730469 210.960938 269.910156 211.371094 269.074219 211.726562 C 268.238281 212.082031 267.390625 212.378906 266.535156 212.617188 C 265.679688 212.855469 264.816406 213.035156 263.945312 213.152344 C 263.078125 213.273438 262.207031 213.332031 261.332031 213.332031 C 260.460938 213.332031 259.589844 213.273438 258.71875 213.152344 C 257.851562 213.035156 256.988281 212.855469 256.132812 212.617188 C 255.273438 212.378906 254.429688 212.082031 253.59375 211.726562 C 252.757812 211.371094 251.933594 210.960938 251.128906 210.492188 C 250.320312 210.023438 249.53125 209.5 248.761719 208.925781 C 247.992188 208.347656 247.246094 207.722656 246.519531 207.042969 C 245.792969 206.363281 245.089844 205.632812 244.417969 204.859375 C 243.742188 204.082031 243.09375 203.261719 242.476562 202.398438 C 241.859375 201.535156 241.273438 200.628906 240.71875 199.683594 C 240.164062 198.738281 239.644531 197.757812 239.160156 196.742188 C 238.675781 195.726562 238.226562 194.675781 237.816406 193.597656 C 237.402344 192.519531 237.03125 191.417969 236.695312 190.285156 C 236.363281 189.15625 236.070312 188.007812 235.816406 186.835938 C 235.5625 185.667969 235.347656 184.484375 235.179688 183.285156 C 235.007812 182.085938 234.878906 180.875 234.796875 179.660156 C 234.710938 178.441406 234.667969 177.222656 234.667969 176 C 234.667969 174.777344 234.710938 173.558594 234.796875 172.339844 C 234.878906 171.125 235.007812 169.914062 235.179688 168.714844 C 235.347656 167.515625 235.5625 166.332031 235.816406 165.164062 C 236.070312 163.992188 236.363281 162.84375 236.695312 161.714844 C 237.03125 160.582031 237.402344 159.480469 237.816406 158.402344 C 238.226562 157.324219 238.675781 156.273438 239.160156 155.257812 C 239.644531 154.242188 240.164062 153.261719 240.71875 152.316406 C 241.273438 151.371094 241.859375 150.464844 242.476562 149.601562 C 243.09375 148.738281 243.742188 147.917969 244.417969 147.140625 C 245.089844 146.367188 245.792969 145.636719 246.519531 144.957031 C 247.246094 144.277344 247.992188 143.652344 248.761719 143.074219 C 249.53125 142.5 250.320312 141.976562 251.128906 141.507812 C 251.933594 141.039062 252.757812 140.628906 253.59375 140.273438 C 254.429688 139.917969 255.273438 139.621094 256.132812 139.382812 C 256.988281 139.144531 257.851562 138.964844 258.71875 138.847656 C 259.589844 138.726562 260.460938 138.667969 261.332031 138.667969 C 262.207031 138.667969 263.078125 138.726562 263.945312 138.847656 C 264.816406 138.964844 265.679688 139.144531 266.535156 139.382812 C 267.390625 139.621094 268.238281 139.917969 269.074219 140.273438 C 269.910156 140.628906 270.730469 141.039062 271.539062 141.507812 C 272.34375 141.976562 273.132812 142.5 273.902344 143.074219 C 274.675781 143.652344 275.421875 144.277344 276.148438 144.957031 C 276.875 145.636719 277.574219 146.367188 278.25 147.140625 C 278.925781 147.917969 279.570312 148.738281 280.191406 149.601562 C 280.808594 150.464844 281.394531 151.371094 281.945312 152.316406 C 282.5 153.261719 283.019531 154.242188 283.503906 155.257812 C 283.992188 156.273438 284.441406 157.324219 284.851562 158.402344 C 285.261719 159.480469 285.636719 160.582031 285.96875 161.714844 C 286.304688 162.84375 286.597656 163.992188 286.851562 165.164062 C 287.105469 166.332031 287.316406 167.515625 287.488281 168.714844 C 287.65625 169.914062 287.785156 171.125 287.871094 172.339844 C 287.957031 173.558594 288 174.777344 288 176 Z M 288 176 " fill-opacity="1" fill-rule="nonzero"/><path fill="#664500" d="M 266.667969 277.332031 L 117.332031 277.332031 C 111.445312 277.332031 106.667969 272.566406 106.667969 266.667969 C 106.667969 260.769531 111.445312 256 117.332031 256 L 266.667969 256 C 272.566406 256 277.332031 260.769531 277.332031 266.667969 C 277.332031 272.566406 272.566406 277.332031 266.667969 277.332031 Z M 266.667969 277.332031 " fill-opacity="1" fill-rule="nonzero"/></svg>