<svg xmlns="http://www.w3.org/2000/svg" xmlns:xlink="http://www.w3.org/1999/xlink" width="512" zoomAndPan="magnify" viewBox="0 0 384 383.999986" height="512" preserveAspectRatio="xMidYMid meet" version="1.0"><path fill="#ffcc4d" d="M 384 192 C 384 298.039062 298.039062 384 192 384 C 85.972656 384 0 298.039062 0 192 C 0 85.972656 85.972656 0 192 0 C 298.039062 0 384 85.972656 384 192 " fill-opacity="1" fill-rule="nonzero"/><path fill="#664500" d="M 184.660156 187.863281 C 182.785156 186.335938 180.105469 186.292969 178.15625 187.710938 C 178.027344 187.808594 164.714844 197.332031 138.667969 197.332031 C 112.628906 197.332031 99.308594 187.808594 99.199219 187.734375 C 97.246094 186.273438 94.558594 186.316406 92.683594 187.828125 C 90.785156 189.34375 90.144531 191.945312 91.125 194.164062 C 91.765625 195.605469 107.125 229.332031 138.667969 229.332031 C 170.21875 229.332031 185.566406 195.605469 186.207031 194.164062 C 187.1875 191.957031 186.550781 189.375 184.660156 187.863281 Z M 291.328125 187.863281 C 289.449219 186.335938 286.785156 186.28125 284.820312 187.710938 C 284.691406 187.808594 271.371094 197.332031 245.332031 197.332031 C 219.308594 197.332031 205.972656 187.808594 205.867188 187.734375 C 203.914062 186.273438 201.238281 186.316406 199.347656 187.828125 C 197.449219 189.34375 196.8125 191.945312 197.792969 194.164062 C 198.433594 195.605469 213.792969 229.332031 245.332031 229.332031 C 276.886719 229.332031 292.234375 195.605469 292.875 194.164062 C 293.855469 191.957031 293.214844 189.375 291.328125 187.863281 Z M 234.667969 298.667969 L 149.332031 298.667969 C 143.445312 298.667969 138.667969 293.898438 138.667969 288 C 138.667969 282.101562 143.445312 277.332031 149.332031 277.332031 L 234.667969 277.332031 C 240.566406 277.332031 245.332031 282.101562 245.332031 288 C 245.332031 293.898438 240.566406 298.667969 234.667969 298.667969 Z M 64 149.332031 C 58.113281 149.332031 53.332031 144.554688 53.332031 138.667969 C 53.332031 132.789062 58.078125 128.019531 63.957031 128 C 65.621094 127.980469 102.027344 127.082031 130.144531 89.601562 C 133.675781 84.90625 140.351562 83.925781 145.078125 87.464844 C 149.792969 90.996094 150.742188 97.683594 147.210938 102.398438 C 112.40625 148.800781 65.960938 149.332031 64 149.332031 Z M 320 149.332031 C 318.039062 149.332031 271.605469 148.800781 236.800781 102.398438 C 233.257812 97.683594 234.21875 90.996094 238.933594 87.464844 C 243.636719 83.914062 250.316406 84.886719 253.855469 89.601562 C 282.027344 127.15625 318.507812 127.988281 320.054688 128 C 325.921875 128.0625 330.65625 132.863281 330.625 138.71875 C 330.601562 144.597656 325.867188 149.332031 320 149.332031 Z M 320 149.332031 " fill-opacity="1" fill-rule="nonzero"/></svg>