<svg xmlns="http://www.w3.org/2000/svg" xmlns:xlink="http://www.w3.org/1999/xlink" width="512" zoomAndPan="magnify" viewBox="0 0 384 383.999986" height="512" preserveAspectRatio="xMidYMid meet" version="1.0"><path fill="#ffcc4d" d="M 384 192 C 384 298.039062 298.039062 384 192 384 C 85.972656 384 0 298.039062 0 192 C 0 85.972656 85.972656 0 192 0 C 298.039062 0 384 85.972656 384 192 " fill-opacity="1" fill-rule="nonzero"/><path fill="#664500" d="M 149.332031 133.332031 C 149.332031 135.253906 149.289062 137.171875 149.203125 139.082031 C 149.121094 140.996094 148.992188 142.894531 148.820312 144.777344 C 148.652344 146.664062 148.4375 148.523438 148.183594 150.363281 C 147.929688 152.203125 147.636719 154.007812 147.304688 155.785156 C 146.96875 157.558594 146.597656 159.292969 146.183594 160.988281 C 145.773438 162.683594 145.324219 164.328125 144.839844 165.925781 C 144.355469 167.523438 143.835938 169.066406 143.28125 170.550781 C 142.726562 172.035156 142.140625 173.457031 141.523438 174.816406 C 140.90625 176.175781 140.257812 177.464844 139.582031 178.683594 C 138.910156 179.902344 138.207031 181.046875 137.480469 182.113281 C 136.753906 183.179688 136.007812 184.167969 135.238281 185.074219 C 134.46875 185.976562 133.679688 186.800781 132.871094 187.535156 C 132.066406 188.269531 131.242188 188.917969 130.40625 189.472656 C 129.570312 190.03125 128.726562 190.496094 127.867188 190.871094 C 127.011719 191.246094 126.148438 191.527344 125.28125 191.71875 C 124.410156 191.90625 123.539062 192 122.667969 192 C 121.792969 192 120.921875 191.90625 120.054688 191.71875 C 119.183594 191.527344 118.320312 191.246094 117.464844 190.871094 C 116.609375 190.496094 115.761719 190.03125 114.925781 189.472656 C 114.089844 188.917969 113.269531 188.269531 112.460938 187.535156 C 111.65625 186.800781 110.867188 185.976562 110.097656 185.074219 C 109.324219 184.167969 108.578125 183.179688 107.851562 182.113281 C 107.125 181.046875 106.425781 179.902344 105.75 178.683594 C 105.074219 177.464844 104.429688 176.175781 103.808594 174.816406 C 103.191406 173.457031 102.605469 172.035156 102.054688 170.550781 C 101.5 169.066406 100.980469 167.523438 100.492188 165.925781 C 100.007812 164.328125 99.558594 162.683594 99.148438 160.988281 C 98.738281 159.292969 98.363281 157.558594 98.03125 155.785156 C 97.695312 154.007812 97.402344 152.203125 97.148438 150.363281 C 96.894531 148.523438 96.683594 146.664062 96.511719 144.777344 C 96.34375 142.894531 96.214844 140.996094 96.128906 139.082031 C 96.042969 137.171875 96 135.253906 96 133.332031 C 96 131.410156 96.042969 129.496094 96.128906 127.582031 C 96.214844 125.671875 96.34375 123.773438 96.511719 121.886719 C 96.683594 120.003906 96.894531 118.140625 97.148438 116.304688 C 97.402344 114.464844 97.695312 112.65625 98.03125 110.882812 C 98.363281 109.105469 98.738281 107.371094 99.148438 105.679688 C 99.558594 103.984375 100.007812 102.335938 100.492188 100.738281 C 100.980469 99.140625 101.5 97.601562 102.054688 96.117188 C 102.605469 94.628906 103.191406 93.207031 103.808594 91.851562 C 104.429688 90.492188 105.074219 89.203125 105.75 87.984375 C 106.425781 86.765625 107.125 85.621094 107.851562 84.554688 C 108.578125 83.484375 109.324219 82.5 110.097656 81.59375 C 110.867188 80.6875 111.65625 79.867188 112.460938 79.132812 C 113.269531 78.398438 114.089844 77.75 114.925781 77.191406 C 115.761719 76.636719 116.609375 76.167969 117.464844 75.792969 C 118.320312 75.417969 119.183594 75.136719 120.054688 74.949219 C 120.921875 74.761719 121.792969 74.667969 122.667969 74.667969 C 123.539062 74.667969 124.410156 74.761719 125.28125 74.949219 C 126.148438 75.136719 127.011719 75.417969 127.867188 75.792969 C 128.726562 76.167969 129.570312 76.636719 130.40625 77.191406 C 131.242188 77.75 132.066406 78.398438 132.871094 79.132812 C 133.679688 79.867188 134.46875 80.6875 135.238281 81.59375 C 136.007812 82.5 136.753906 83.484375 137.480469 84.554688 C 138.207031 85.621094 138.910156 86.765625 139.582031 87.984375 C 140.257812 89.203125 140.90625 90.492188 141.523438 91.851562 C 142.140625 93.207031 142.726562 94.628906 143.28125 96.117188 C 143.835938 97.601562 144.355469 99.140625 144.839844 100.738281 C 145.324219 102.335938 145.773438 103.984375 146.183594 105.679688 C 146.597656 107.371094 146.96875 109.105469 147.304688 110.882812 C 147.636719 112.65625 147.929688 114.464844 148.183594 116.304688 C 148.4375 118.140625 148.652344 120.003906 148.820312 121.886719 C 148.992188 123.773438 149.121094 125.671875 149.203125 127.582031 C 149.289062 129.496094 149.332031 131.410156 149.332031 133.332031 Z M 149.332031 133.332031 " fill-opacity="1" fill-rule="nonzero"/><path fill="#664500" d="M 288 133.332031 C 288 135.253906 287.957031 137.171875 287.871094 139.082031 C 287.785156 140.996094 287.65625 142.894531 287.488281 144.777344 C 287.316406 146.664062 287.105469 148.523438 286.851562 150.363281 C 286.597656 152.203125 286.304688 154.007812 285.96875 155.785156 C 285.636719 157.558594 285.261719 159.292969 284.851562 160.988281 C 284.441406 162.683594 283.992188 164.328125 283.503906 165.925781 C 283.019531 167.523438 282.5 169.066406 281.945312 170.550781 C 281.394531 172.035156 280.808594 173.457031 280.191406 174.816406 C 279.570312 176.175781 278.925781 177.464844 278.25 178.683594 C 277.574219 179.902344 276.875 181.046875 276.148438 182.113281 C 275.421875 183.179688 274.675781 184.167969 273.902344 185.074219 C 273.132812 185.976562 272.34375 186.800781 271.539062 187.535156 C 270.730469 188.269531 269.910156 188.917969 269.074219 189.472656 C 268.238281 190.03125 267.390625 190.496094 266.535156 190.871094 C 265.679688 191.246094 264.816406 191.527344 263.945312 191.71875 C 263.078125 191.90625 262.207031 192 261.332031 192 C 260.460938 192 259.589844 191.90625 258.71875 191.71875 C 257.851562 191.527344 256.988281 191.246094 256.132812 190.871094 C 255.273438 190.496094 254.429688 190.03125 253.59375 189.472656 C 252.757812 188.917969 251.933594 188.269531 251.128906 187.535156 C 250.320312 186.800781 249.53125 185.976562 248.761719 185.074219 C 247.992188 184.167969 247.246094 183.179688 246.519531 182.113281 C 245.792969 181.046875 245.089844 179.902344 244.417969 178.683594 C 243.742188 177.464844 243.09375 176.175781 242.476562 174.816406 C 241.859375 173.457031 241.273438 172.035156 240.71875 170.550781 C 240.164062 169.066406 239.644531 167.523438 239.160156 165.925781 C 238.675781 164.328125 238.226562 162.683594 237.816406 160.988281 C 237.402344 159.292969 237.03125 157.558594 236.695312 155.785156 C 236.363281 154.007812 236.070312 152.203125 235.816406 150.363281 C 235.5625 148.523438 235.347656 146.664062 235.179688 144.777344 C 235.007812 142.894531 234.878906 140.996094 234.796875 139.082031 C 234.710938 137.171875 234.667969 135.253906 234.667969 133.332031 C 234.667969 131.410156 234.710938 129.496094 234.796875 127.582031 C 234.878906 125.671875 235.007812 123.773438 235.179688 121.886719 C 235.347656 120.003906 235.5625 118.140625 235.816406 116.304688 C 236.070312 114.464844 236.363281 112.65625 236.695312 110.882812 C 237.03125 109.105469 237.402344 107.371094 237.816406 105.679688 C 238.226562 103.984375 238.675781 102.335938 239.160156 100.738281 C 239.644531 99.140625 240.164062 97.601562 240.71875 96.117188 C 241.273438 94.628906 241.859375 93.207031 242.476562 91.851562 C 243.09375 90.492188 243.742188 89.203125 244.417969 87.984375 C 245.089844 86.765625 245.792969 85.621094 246.519531 84.554688 C 247.246094 83.484375 247.992188 82.5 248.761719 81.59375 C 249.53125 80.6875 250.320312 79.867188 251.128906 79.132812 C 251.933594 78.398438 252.757812 77.75 253.59375 77.191406 C 254.429688 76.636719 255.273438 76.167969 256.132812 75.792969 C 256.988281 75.417969 257.851562 75.136719 258.71875 74.949219 C 259.589844 74.761719 260.460938 74.667969 261.332031 74.667969 C 262.207031 74.667969 263.078125 74.761719 263.945312 74.949219 C 264.816406 75.136719 265.679688 75.417969 266.535156 75.792969 C 267.390625 76.167969 268.238281 76.636719 269.074219 77.191406 C 269.910156 77.75 270.730469 78.398438 271.539062 79.132812 C 272.34375 79.867188 273.132812 80.6875 273.902344 81.59375 C 274.675781 82.5 275.421875 83.484375 276.148438 84.554688 C 276.875 85.621094 277.574219 86.765625 278.25 87.984375 C 278.925781 89.203125 279.570312 90.492188 280.191406 91.851562 C 280.808594 93.207031 281.394531 94.628906 281.945312 96.117188 C 282.5 97.601562 283.019531 99.140625 283.503906 100.738281 C 283.992188 102.335938 284.441406 103.984375 284.851562 105.679688 C 285.261719 107.371094 285.636719 109.105469 285.96875 110.882812 C 286.304688 112.65625 286.597656 114.464844 286.851562 116.304688 C 287.105469 118.140625 287.316406 120.003906 287.488281 121.886719 C 287.65625 123.773438 287.785156 125.671875 287.871094 127.582031 C 287.957031 129.496094 288 131.410156 288 133.332031 Z M 288 133.332031 " fill-opacity="1" fill-rule="nonzero"/><path fill="#664500" d="M 192 234.667969 C 153.355469 234.667969 127.710938 230.164062 96 224 C 88.757812 222.601562 74.667969 224 74.667969 245.332031 C 74.667969 288 123.679688 341.332031 192 341.332031 C 260.308594 341.332031 309.332031 288 309.332031 245.332031 C 309.332031 224 295.242188 222.59375 288 224 C 256.289062 230.164062 230.644531 234.667969 192 234.667969 Z M 192 234.667969 " fill-opacity="1" fill-rule="nonzero"/><path fill="#ffffff" d="M 96 245.332031 C 96 245.332031 128 256 192 256 C 256 256 288 245.332031 288 245.332031 C 288 245.332031 266.667969 288 192 288 C 117.332031 288 96 245.332031 96 245.332031 Z M 96 245.332031 " fill-opacity="1" fill-rule="nonzero"/></svg>