<svg xmlns="http://www.w3.org/2000/svg" width="24" height="24" viewBox="0 0 24 24" fill="none">
<path d="M4.5 21.5L8.5 17.5M10.5 17.5L14.5 21.5M9.5 17.5V22.5" stroke="#6674CC" stroke-width="2" stroke-linecap="round" stroke-linejoin="round"/>
<path d="M2 11.875C2 9.81261 2 8.78141 3.02513 8.1407C4.05025 7.5 5.70017 7.5 9 7.5H10C13.2998 7.5 14.9497 7.5 15.9749 8.1407C17 8.78141 17 9.81261 17 11.875V13.125C17 15.1874 17 16.2186 15.9749 16.8593C14.9497 17.5 13.2998 17.5 10 17.5H9C5.70017 17.5 4.05025 17.5 3.02513 16.8593C2 16.2186 2 15.1874 2 13.125V11.875Z" stroke="#6674CC" stroke-width="2"/>
<path d="M17 10.2495L17.1259 10.174C19.2417 8.90435 20.2996 8.26954 21.1498 8.57605C22 8.88257 22 9.89876 22 11.9312V13.0685C22 15.1009 22 16.1171 21.1498 16.4236C20.2996 16.7301 19.2417 16.0953 17.1259 14.8257L17 14.7501" stroke="#6674CC" stroke-width="2" stroke-linecap="round"/>
<path d="M12.5 7.5C13.8807 7.5 15 6.38071 15 5C15 3.61929 13.8807 2.5 12.5 2.5C11.1193 2.5 10 3.61929 10 5C10 6.38071 11.1193 7.5 12.5 7.5Z" stroke="#6674CC" stroke-width="2"/>
<path d="M7 7.5C8.65685 7.5 10 6.15685 10 4.5C10 2.84315 8.65685 1.5 7 1.5C5.34315 1.5 4 2.84315 4 4.5C4 6.15685 5.34315 7.5 7 7.5Z" stroke="#6674CC" stroke-width="2"/>
</svg>